<svg version="1.2" xmlns="http://www.w3.org/2000/svg" viewBox="0 0 425 426" width="425" height="426">
	<title>compass</title>
	<style>
		.s0 { opacity: .5;mix-blend-mode: overlay;fill: #ffffff } 
	</style>
	<path id="compass" fill-rule="evenodd" class="s0" d="m212 424c-116.5 0-211-94.4-211-211 0-116.5 94.5-211 211-211 116.6 0 211 94.5 211 211 0 116.6-94.4 211-211 211zm1.5-369.9c-87.7 0-158.7 71.1-158.7 158.8 0 87.6 71 158.7 158.7 158.7 87.7 0 158.7-71.1 158.7-158.7 0-87.7-71-158.8-158.7-158.8zm-91.9 251.1l51.9-132.3 131.1-51.9-53.2 131zm64.4-91.8c0 14.6 11.8 26.4 26.4 26.4 14.6 0 26.4-11.8 26.4-26.4 0-14.5-11.8-26.4-26.4-26.4-14.6 0-26.4 11.9-26.4 26.4z"/>
</svg>