<svg version="1.2" xmlns="http://www.w3.org/2000/svg" viewBox="0 0 264 52" width="250" height="49">
	<title>Gruppe 1</title>
	<style>
		.s0 { fill: #ffffff } 
		.s1 { fill: #c4132f } 
	</style>
	<g id="Gruppe 1">
		<path id="Segelteam" class="s0" aria-label="Segelteam"  d="m86.7 16.8v4.6q-1.8-0.8-3.5-1.2-1.7-0.4-3.2-0.4-2.1 0-3 0.6-1 0.5-1 1.7 0 0.9 0.7 1.4 0.6 0.5 2.3 0.8l2.4 0.5q3.7 0.7 5.2 2.2 1.6 1.5 1.6 4.3 0 3.6-2.2 5.4-2.1 1.7-6.5 1.7-2.1 0-4.2-0.4-2.1-0.4-4.2-1.1v-4.8q2.1 1.1 4 1.7 2 0.5 3.8 0.5 1.9 0 2.8-0.6 1-0.6 1-1.7 0-1.1-0.6-1.6-0.7-0.6-2.7-1l-2.2-0.5q-3.3-0.7-4.8-2.2-1.5-1.6-1.5-4.2 0-3.3 2.1-5 2.1-1.8 6.1-1.8 1.8 0 3.7 0.3 1.9 0.3 3.9 0.8zm6.4 21.2v-21.9h15.2v4.3h-9.6v4.1h9.1v4.2h-9.1v5h10v4.3zm40.1-12.1v10.5q-2.1 1-4.4 1.5-2.2 0.5-4.7 0.5-5.4 0-8.6-3-3.2-3.1-3.2-8.3 0-5.3 3.2-8.3 3.3-3.1 8.9-3.1 2.2 0 4.2 0.4 2 0.5 3.8 1.3v4.5q-1.8-1.1-3.6-1.6-1.9-0.5-3.7-0.5-3.3 0-5.2 1.9-1.8 1.9-1.8 5.4 0 3.5 1.8 5.3 1.7 1.9 5 1.9 0.8 0 1.6-0.1 0.8-0.1 1.4-0.3v-4.3h-3.5v-3.7zm5 12.1v-21.9h15.2v4.3h-9.6v4.1h9v4.2h-9v5h9.9v4.3zm20.5 0v-21.9h5.7v17.6h9.9v4.3zm34-18.4h-7.1v18.4h-2.8v-18.4h-7.1v-2.2h17zm20.9 18.3h-16.3v-20.6h15.7v2.3h-12.9v6.6h12v2.2h-12v7.2h13.5zm22.7 0h-2.9l-2.3-6h-9.4l-2.4 6h-2.9l8.4-20.6h3.2zm-9.5-17.3l-0.4-1.2-0.1 0.4q-0.4 1.2-1.1 3.1l-2.7 6.8h7.8l-2.7-6.8q-0.4-1.1-0.8-2.3zm33.6 17.3h-2.5v-13.8q0-2.3 0.1-4.4-0.7 2.6-1.3 4.1l-5.3 14.1h-2l-5.4-14.1-0.8-2.5-0.5-1.6 0.1 1.7v2.7 13.8h-2.5v-20.6h3.7l5.5 14.3q0.3 0.8 0.6 1.8 0.2 1 0.3 1.4 0.1-0.5 0.5-1.7 0.4-1.2 0.5-1.5l5.4-14.3h3.6z"/>
		<circle id="Ellipse 2" class="s0" cx="26" cy="26" r="26"/>
		<path id="Polygon 1" class="s1" d="m41 22.5l-17 9.5v-19z"/>
		<path id="Rechteck 6" class="s1" d="m20 10h4v34h-4z"/>
	</g>
</svg>